<?xml version="1.0" encoding="UTF-8" standalone="no"?>
<!-- Created with Inkscape (http://www.inkscape.org/) -->

<svg
   xmlns:dc="http://purl.org/dc/elements/1.1/"
   xmlns:cc="http://creativecommons.org/ns#"
   xmlns:rdf="http://www.w3.org/1999/02/22-rdf-syntax-ns#"
   xmlns:svg="http://www.w3.org/2000/svg"
   xmlns="http://www.w3.org/2000/svg"
   xmlns:sodipodi="http://sodipodi.sourceforge.net/DTD/sodipodi-0.dtd"
   xmlns:inkscape="http://www.inkscape.org/namespaces/inkscape"
   width="1062.9921"
   height="708.66138"
   id="svg2"
   version="1.1"
   inkscape:version="0.48.4 r9939"
   sodipodi:docname="hotWire_toolHolder_v3.svg">
  <defs
     id="defs4">
    <inkscape:path-effect
       effect="spiro"
       id="path-effect3793"
       is_visible="true" />
  </defs>
  <sodipodi:namedview
     id="base"
     pagecolor="#ffffff"
     bordercolor="#666666"
     borderopacity="1.0"
     inkscape:pageopacity="0.0"
     inkscape:pageshadow="2"
     inkscape:zoom="0.7071068"
     inkscape:cx="544.59598"
     inkscape:cy="580.75226"
     inkscape:document-units="mm"
     inkscape:current-layer="layer1"
     showgrid="false"
     units="mm"
     inkscape:window-width="1301"
     inkscape:window-height="744"
     inkscape:window-x="65"
     inkscape:window-y="24"
     inkscape:window-maximized="1"
     inkscape:object-nodes="true"
     inkscape:snap-midpoints="false"
     inkscape:snap-object-midpoints="false"
     showguides="true"
     inkscape:snap-to-guides="true"
     borderlayer="false"
     inkscape:guide-bbox="true"
     inkscape:object-paths="true"
     inkscape:snap-intersection-paths="false"
     inkscape:snap-smooth-nodes="true"
     inkscape:snap-bbox="false">
    <inkscape:grid
       type="xygrid"
       id="grid2982"
       empspacing="10"
       visible="true"
       enabled="true"
       snapvisiblegridlinesonly="true"
       units="mm"
       spacingx="1mm"
       spacingy="1mm"
       empcolor="#5a5a00"
       empopacity="0.25098039" />
    <inkscape:grid
       type="xygrid"
       id="grid3958"
       empspacing="8"
       visible="true"
       enabled="false"
       snapvisiblegridlinesonly="true"
       units="in"
       spacingx="0.125in"
       spacingy="0.125in"
       empcolor="#007400"
       empopacity="0.25098039" />
  </sodipodi:namedview>
  <metadata
     id="metadata7">
    <rdf:RDF>
      <cc:Work
         rdf:about="">
        <dc:format>image/svg+xml</dc:format>
        <dc:type
           rdf:resource="http://purl.org/dc/dcmitype/StillImage" />
        <dc:title />
      </cc:Work>
    </rdf:RDF>
  </metadata>
  <g
     inkscape:label="Layer 1"
     inkscape:groupmode="layer"
     id="layer1"
     transform="translate(0,-343.69828)">
    <path
       style="opacity:0.5;fill:#808080;fill-opacity:1;fill-rule:nonzero;stroke:#000000;stroke-width:0.47125983;stroke-linecap:square;stroke-linejoin:miter;stroke-miterlimit:4;stroke-opacity:1;stroke-dasharray:none"
       d="m -20.39004,1101.7388 c 0,4.8923 -3.951464,8.875 -8.84375,8.875 l 8.84375,0 0,-8.875 z"
       id="rect3762"
       inkscape:connector-curvature="0" />
    <path
       style="opacity:0.5;fill:#808080;fill-opacity:1;fill-rule:nonzero;stroke:#000000;stroke-width:0.47125983;stroke-linecap:square;stroke-linejoin:miter;stroke-miterlimit:4;stroke-opacity:1;stroke-dasharray:none"
       d="m -21.294188,1114.1056 c -2.446143,0 -4.678219,0.9907 -6.28125,2.5937 l 12.53125,0 c -1.603031,-1.603 -3.803857,-2.5937 -6.25,-2.5937 z m -6.28125,2.5937 c -1.603031,1.603 -2.59375,3.8039 -2.59375,6.25 0,2.4461 0.990719,4.6782 2.59375,6.2813 l 0,-12.5313 z"
       id="path3769"
       inkscape:connector-curvature="0" />
    <path
       sodipodi:type="arc"
       style="opacity:0.50617281;fill:#808080;fill-opacity:1;fill-rule:nonzero;stroke:#000000;stroke-width:1.875;stroke-linecap:square;stroke-linejoin:miter;stroke-miterlimit:4;stroke-opacity:1;stroke-dasharray:none"
       id="path3960"
       sodipodi:cx="16.875"
       sodipodi:cy="579.375"
       sodipodi:rx="5.625"
       sodipodi:ry="5.625"
       d="m 22.5,579.375 c 0,3.1066 -2.518398,5.625 -5.625,5.625 -3.106602,0 -5.625,-2.5184 -5.625,-5.625 0,-3.1066 2.518398,-5.625 5.625,-5.625 3.106602,0 5.625,2.5184 5.625,5.625 z"
       transform="translate(67.5,529.23474)" />
    <text
       xml:space="preserve"
       style="font-size:12px;font-style:normal;font-variant:normal;font-weight:normal;font-stretch:normal;line-height:125%;letter-spacing:0px;word-spacing:0px;fill:#000000;fill-opacity:1;stroke:none;font-family:FreeSerif;-inkscape-font-specification:FreeSerif"
       x="-38.976379"
       y="1087.7928"
       id="text3962"
       sodipodi:linespacing="125%"><tspan
         sodipodi:role="line"
         id="tspan3964"
         x="-38.976379"
         y="1087.7928">5 mm</tspan></text>
    <text
       xml:space="preserve"
       style="font-size:12px;font-style:normal;font-variant:normal;font-weight:normal;font-stretch:normal;line-height:125%;letter-spacing:0px;word-spacing:0px;fill:#000000;fill-opacity:1;stroke:none;font-family:FreeSerif;-inkscape-font-specification:FreeSerif"
       x="67.5"
       y="1086.1097"
       id="text3966"
       sodipodi:linespacing="125%"><tspan
         sodipodi:role="line"
         id="tspan3968"
         x="67.5"
         y="1086.1097">1/8 in</tspan></text>
    <text
       xml:space="preserve"
       style="font-size:12px;font-style:normal;font-variant:normal;font-weight:normal;font-stretch:normal;line-height:125%;letter-spacing:0px;word-spacing:0px;fill:#000000;fill-opacity:1;stroke:none;font-family:FreeSerif;-inkscape-font-specification:FreeSerif"
       x="186"
       y="732.16138"
       id="text3861"
       sodipodi:linespacing="125%"
       transform="translate(0,343.69828)"><tspan
         sodipodi:role="line"
         id="tspan3863"
         x="186"
         y="732.16138">1/4 in</tspan></text>
    <path
       sodipodi:type="arc"
       style="opacity:0.50617281;fill:#000000;fill-opacity:1;fill-rule:nonzero;stroke:#ff0000;stroke-width:0.18000001;stroke-linecap:square;stroke-linejoin:miter;stroke-miterlimit:4;stroke-opacity:1;stroke-dasharray:none"
       id="path3865"
       sodipodi:cx="191.25"
       sodipodi:cy="753.66138"
       sodipodi:rx="11.25"
       sodipodi:ry="11.25"
       d="m 202.5,753.66138 c 0,6.2132 -5.0368,11.25 -11.25,11.25 -6.2132,0 -11.25,-5.0368 -11.25,-11.25 0,-6.21321 5.0368,-11.25 11.25,-11.25 6.2132,0 11.25,5.03679 11.25,11.25 z"
       transform="translate(0,343.69828)" />
    <path
       style="opacity:1;fill:none;fill-opacity:1;stroke:#ff0000;stroke-width:0.17999999999999999;stroke-linecap:square;stroke-linejoin:miter;stroke-miterlimit:4;stroke-opacity:1;stroke-dasharray:none"
       d="m 150.58538,605.90838 c -4.89229,0 -8.84375,3.98271 -8.84375,8.875 l 0,38.96875 c 0,4.89228 3.9827,8.84375 8.875,8.84375 l 239.15625,0 c 39.1334,0 70.84375,31.74168 70.84375,70.875 l 0,26.5625 c 0,4.8923 3.98271,8.84375 8.875,8.84375 l 9.40625,0 15.40625,0 c 4.89229,0 8.84375,-3.9827 8.84375,-8.875 l 0,-84.875 c -1.60303,-1.6031 -2.59375,-3.83515 -2.59375,-6.28125 0,-2.4461 0.99072,-4.647 2.59375,-6.25 1.60303,-1.603 3.83511,-2.59375 6.28125,-2.59375 2.44615,0 4.64697,0.99075 6.25,2.59375 l 102.5,0 c 1.6031,-1.60303 3.83515,-2.59375 6.28125,-2.59375 2.4461,0 4.647,0.99072 6.25,2.59375 1.603,1.60304 2.59375,3.83511 2.59375,6.28125 0,2.44615 -0.99075,4.64697 -2.59375,6.25 l 0,84.90625 c 0,4.89229 3.9827,8.84375 8.875,8.84375 l 8.0625,0 16.75,0 c 4.89229,0 8.84375,-3.9827 8.84375,-8.875 l 0,-26.53125 c 0,-39.13331 31.71034,-70.875 70.84375,-70.875 l 239.1875,0 c 4.89229,0 8.84375,-3.98271 8.84375,-8.875 l 0,-39.875 c -0.45547,-4.46524 -4.25722,-7.9375 -8.84375,-7.9375 l -53.125,0 -0.0312,0 -73.3125,0 -633,0 -20.0625,0 -53.15625,0 z m 8.875,22.71875 c 3.1066,0 5.625,2.5184 5.625,5.625 0,3.1066 -2.5184,5.625 -5.625,5.625 -3.1066,0 -5.625,-2.5184 -5.625,-5.625 0,-3.1066 2.5184,-5.625 5.625,-5.625 z m 194.90625,0 c 3.1066,0 5.625,2.5184 5.625,5.625 0,3.1066 -2.5184,5.625 -5.625,5.625 -3.1066,0 -5.625,-2.5184 -5.625,-5.625 0,-3.1066 2.5184,-5.625 5.625,-5.625 z m 425.1875,0 c 3.1066,0 5.625,2.5184 5.625,5.625 0,3.1066 -2.5184,5.625 -5.625,5.625 -3.1066,0 -5.625,-2.5184 -5.625,-5.625 0,-3.1066 2.5184,-5.625 5.625,-5.625 z m 194.875,0 c 3.1066,0 5.625,2.5184 5.625,5.625 0,3.1066 -2.5184,5.625 -5.625,5.625 -3.1066,0 -5.625,-2.5184 -5.625,-5.625 0,-3.1066 2.5184,-5.625 5.625,-5.625 z"
       id="rect3754-9-1-0-6"
       inkscape:connector-curvature="0" />
    <path
       style="opacity:0.50617281;fill:#000000;fill-opacity:1;fill-rule:nonzero;stroke:#ff0000;stroke-width:0.53503937;stroke-linecap:square;stroke-linejoin:miter;stroke-miterlimit:4;stroke-opacity:1;stroke-dasharray:none"
       d="m 248.0315,1087.7927 c -4.89229,0 -8.84375,3.9827 -8.84375,8.875 l 0,56.6562 0,88.5938 c 0,4.8923 3.98271,8.8437 8.875,8.8437 l 11.25,0 13.5625,0 c 4.89229,0 8.84375,-3.9827 8.84375,-8.875 l 0,-84.875 c -1.60303,-1.6031 -2.59375,-3.8351 -2.59375,-6.2812 0,-2.4461 0.99072,-4.647 2.59375,-6.25 1.60303,-1.603 3.83511,-2.5938 6.28125,-2.5938 2.44615,0 4.64697,0.9908 6.25,2.5938 l 102.5,0 c 1.6031,-1.6031 3.83515,-2.5938 6.28125,-2.5938 2.4461,0 4.647,0.9907 6.25,2.5938 1.603,1.603 2.59375,3.8351 2.59375,6.2812 0,2.4462 -0.99075,4.647 -2.59375,6.25 l 0,84.9063 c 0,4.8923 3.9827,8.8437 8.875,8.8437 l 21.15625,0 3.65625,0 c 4.8923,0 8.84375,-3.9827 8.84375,-8.875 l 0,-88.5312 0,-56.7188 c 0,-4.8922 -3.9827,-8.8437 -8.875,-8.8437 l -194.90625,0 z"
       id="rect4096-0-7-9-8-7"
       inkscape:connector-curvature="0" />
    <rect
       style="opacity:0.50617281;fill:#000000;fill-opacity:1;fill-rule:nonzero;stroke:#ff0000;stroke-width:0.18000001;stroke-linecap:square;stroke-linejoin:miter;stroke-miterlimit:4;stroke-opacity:1;stroke-dasharray:none"
       id="rect4135"
       width="22.5"
       height="45"
       x="180"
       y="798.66138"
       transform="translate(0,343.69828)" />
    <rect
       style="opacity:0.50617281;fill:#000000;fill-opacity:1;fill-rule:nonzero;stroke:#ff0000;stroke-width:0.18000001;stroke-linecap:square;stroke-linejoin:miter;stroke-miterlimit:4;stroke-opacity:1;stroke-dasharray:none"
       id="rect4176"
       width="11.25"
       height="22.5"
       x="78.75"
       y="798.66138"
       transform="translate(0,343.69828)" />
    <path
       inkscape:connector-curvature="0"
       style="opacity:0.51440328;fill:#00ffff;fill-opacity:1;fill-rule:nonzero;stroke:#ff0000;stroke-width:0.18000001;stroke-linecap:square;stroke-linejoin:miter;stroke-miterlimit:4;stroke-opacity:1;stroke-dasharray:none"
       d="m -131.1159,1101.9569 0,14.1875 c 0,-7.8277 6.35984,-14.1875 14.1875,-14.1875 l -14.1875,0 z"
       id="rect3971-2" />
    <text
       xml:space="preserve"
       style="font-size:12px;font-style:normal;font-variant:normal;font-weight:normal;font-stretch:normal;line-height:125%;letter-spacing:0px;word-spacing:0px;fill:#000000;fill-opacity:1;stroke:none;font-family:FreeSerif;-inkscape-font-specification:FreeSerif"
       x="-132.22897"
       y="743.66315"
       id="text3996"
       sodipodi:linespacing="125%"
       transform="translate(0,343.69828)"><tspan
         sodipodi:role="line"
         id="tspan3998"
         x="-132.22897"
         y="743.66315">8 mm</tspan></text>
    <path
       style="opacity:0.51440328;fill:#00ffff;fill-opacity:1;fill-rule:nonzero;stroke:#ff0000;stroke-width:0.18000001;stroke-linecap:square;stroke-linejoin:miter;stroke-miterlimit:4;stroke-opacity:1;stroke-dasharray:none"
       d="m -213.5114,1190.669 c -1.02062,-0.5892 -2.82582,-0.1055 -3.41507,0.9151 -0.58925,1.0206 -0.10555,2.8258 0.91507,3.4151 1.02062,0.5892 3.41506,-0.9151 3.41506,-0.9151 0,0 0.10556,-2.8258 -0.91506,-3.4151 z m 0.91505,3.4151 c 0,0 -0.10374,2.8227 0.91507,3.4151 1.02702,0.5929 2.84918,0.1275 3.44213,-0.8995 0.59295,-1.027 0.0867,-2.8409 -0.94213,-3.4307 -1.02061,-0.5892 -3.41507,0.9151 -3.41507,0.9151 z"
       id="rect4089"
       inkscape:connector-curvature="0"
       sodipodi:nodetypes="ssscscsssc" />
    <g
       id="g4161">
      <path
         sodipodi:nodetypes="sscs"
         inkscape:connector-curvature="0"
         id="rect4140"
         transform="translate(0,343.69828)"
         d="m -201.96875,846.84375 c 0,-1.95691 -5.48816,3.5625 -3.53125,3.5625 l 3.53125,0 z"
         style="opacity:0.51440328;fill:#ff00ff;fill-opacity:1;fill-rule:nonzero;stroke:none" />
      <path
         sodipodi:nodetypes="cssc"
         inkscape:connector-curvature="0"
         id="rect4142"
         transform="translate(0,343.69828)"
         d="m -201.96875,850.40625 0,3.53125 c 0,1.95691 5.48816,-3.53125 3.53125,-3.53125 z"
         style="opacity:0.51440328;fill:#ff00ff;fill-opacity:1;fill-rule:nonzero;stroke:none" />
      <path
         sodipodi:nodetypes="scss"
         inkscape:connector-curvature="0"
         id="rect4144"
         transform="translate(0,343.69828)"
         d="m -201.96875,846.84375 0,3.5625 3.53125,0 c 1.95691,0 -3.53125,-5.51941 -3.53125,-3.5625 z"
         style="opacity:0.51440328;fill:#00ff00;fill-opacity:1;fill-rule:nonzero;stroke:none" />
      <path
         sodipodi:nodetypes="sscs"
         inkscape:connector-curvature="0"
         id="rect4146"
         transform="translate(0,343.69828)"
         d="m -205.5,850.40625 c -1.95691,0 3.53125,5.48816 3.53125,3.53125 l 0,-3.53125 z"
         style="opacity:0.51440328;fill:#00ff00;fill-opacity:1;fill-rule:nonzero;stroke:none" />
    </g>
    <text
       xml:space="preserve"
       style="font-size:12px;font-style:normal;font-variant:normal;font-weight:normal;font-stretch:normal;line-height:125%;letter-spacing:0px;word-spacing:0px;fill:#000000;fill-opacity:1;stroke:none;font-family:FreeSerif;-inkscape-font-specification:FreeSerif"
       x="-216.14174"
       y="1172.8322"
       id="text4167"
       sodipodi:linespacing="125%"><tspan
         sodipodi:role="line"
         id="tspan4169"
         x="-216.14174"
         y="1172.8322">center</tspan><tspan
         sodipodi:role="line"
         x="-216.14174"
         y="1187.8322"
         id="tspan4171">mark</tspan></text>
    <path
       style="opacity:1;fill:none;fill-opacity:1;fill-rule:nonzero;stroke:#ff0000;stroke-width:0.17999999999999999;stroke-linecap:square;stroke-linejoin:miter;stroke-miterlimit:4;stroke-opacity:1;stroke-dasharray:none"
       d="M 155.9375 191.34375 C 148.1099 191.34375 141.75 197.70365 141.75 205.53125 L 141.75 253.34375 C 141.75 258.23595 145.70145 262.21875 150.59375 262.21875 L 983.28125 262.21875 C 988.17354 262.21875 992.15625 258.2673 992.15625 253.375 L 992.15625 205.53125 C 992.15625 197.70365 985.79641 191.34375 977.96875 191.34375 L 155.9375 191.34375 z M 155.9375 199.90625 C 159.0441 199.90625 161.5625 202.42465 161.5625 205.53125 C 161.5625 208.63795 159.0441 211.15625 155.9375 211.15625 C 152.8309 211.15625 150.3125 208.63795 150.3125 205.53125 C 150.3125 202.42465 152.8309 199.90625 155.9375 199.90625 z M 977.96875 199.90625 C 981.07535 199.90625 983.59375 202.42465 983.59375 205.53125 C 983.59375 208.63795 981.07535 211.15625 977.96875 211.15625 C 974.86215 211.15625 972.34375 208.63795 972.34375 205.53125 C 972.34375 202.42465 974.86215 199.90625 977.96875 199.90625 z M 212.59375 206.96875 C 215.70035 206.96875 218.21875 209.48715 218.21875 212.59375 C 218.21875 215.70035 215.70035 218.21875 212.59375 218.21875 C 209.48715 218.21875 206.96875 215.70035 206.96875 212.59375 C 206.96875 209.48715 209.48715 206.96875 212.59375 206.96875 z M 283.46875 206.96875 C 286.57535 206.96875 289.09375 209.48715 289.09375 212.59375 C 289.09375 215.70035 286.57535 218.21875 283.46875 218.21875 C 280.36215 218.21875 277.84375 215.70035 277.84375 212.59375 C 277.84375 209.48715 280.36215 206.96875 283.46875 206.96875 z M 354.34375 206.96875 C 357.45035 206.96875 359.96875 209.48715 359.96875 212.59375 C 359.96875 215.70035 357.45035 218.21875 354.34375 218.21875 C 351.23715 218.21875 348.71875 215.70035 348.71875 212.59375 C 348.71875 209.48715 351.23715 206.96875 354.34375 206.96875 z M 425.1875 206.96875 C 428.2941 206.96875 430.8125 209.48715 430.8125 212.59375 C 430.8125 215.70035 428.2941 218.21875 425.1875 218.21875 C 422.0809 218.21875 419.5625 215.70035 419.5625 212.59375 C 419.5625 209.48715 422.0809 206.96875 425.1875 206.96875 z M 496.0625 206.96875 C 499.1691 206.96875 501.6875 209.48715 501.6875 212.59375 C 501.6875 215.70035 499.1691 218.21875 496.0625 218.21875 C 492.9559 218.21875 490.4375 215.70035 490.4375 212.59375 C 490.4375 209.48715 492.9559 206.96875 496.0625 206.96875 z M 566.9375 206.96875 C 570.0441 206.96875 572.5625 209.48715 572.5625 212.59375 C 572.5625 215.70035 570.0441 218.21875 566.9375 218.21875 C 563.8309 218.21875 561.3125 215.70035 561.3125 212.59375 C 561.3125 209.48715 563.8309 206.96875 566.9375 206.96875 z M 637.78125 206.96875 C 640.88785 206.96875 643.40625 209.48715 643.40625 212.59375 C 643.40625 215.70035 640.88785 218.21875 637.78125 218.21875 C 634.67465 218.21875 632.15625 215.70035 632.15625 212.59375 C 632.15625 209.48715 634.67465 206.96875 637.78125 206.96875 z M 708.65625 206.96875 C 711.76285 206.96875 714.28125 209.48715 714.28125 212.59375 C 714.28125 215.70035 711.76285 218.21875 708.65625 218.21875 C 705.54965 218.21875 703.03125 215.70035 703.03125 212.59375 C 703.03125 209.48715 705.54965 206.96875 708.65625 206.96875 z M 779.53125 206.96875 C 782.63785 206.96875 785.15625 209.48715 785.15625 212.59375 C 785.15625 215.70035 782.63785 218.21875 779.53125 218.21875 C 776.42465 218.21875 773.90625 215.70035 773.90625 212.59375 C 773.90625 209.48715 776.42465 206.96875 779.53125 206.96875 z M 850.40625 220.53125 C 853.51285 220.53125 856.03125 223.04965 856.03125 226.15625 C 856.03125 229.26295 853.51285 231.78125 850.40625 231.78125 C 847.29965 231.78125 844.78125 229.26295 844.78125 226.15625 C 844.78125 223.04965 847.29965 220.53125 850.40625 220.53125 z "
       transform="translate(0,343.69828)"
       id="rect3917" />
    <path
       style="opacity:0.51440328;fill:#000000;fill-opacity:1;stroke:#ff0000;stroke-width:0.18000001;stroke-linecap:square;stroke-linejoin:miter;stroke-miterlimit:4;stroke-opacity:1;stroke-dasharray:none"
       d="m 494.42633,1090.0666 c -14.6769,0 -26.5625,11.8856 -26.5625,26.5625 l 0,8.875 0,70.875 62,0 c -4.8923,0 -8.875,-3.9515 -8.875,-8.8438 l 0,-62.0312 0,-8.8438 0,-0.031 c 0,-14.6768 -11.8856,-26.5625 -26.5625,-26.5625 z m 1.78125,12.0937 c 3.1067,0 5.625,2.5184 5.625,5.625 0,3.1066 -2.5183,5.625 -5.625,5.625 -3.1066,0 -5.625,-2.5184 -5.625,-5.625 0,-3.1066 2.5184,-5.625 5.625,-5.625 z m 7.09375,67.3438 c 3.1066,0 5.625,2.5184 5.625,5.625 0,3.1066 -2.5184,5.625 -5.625,5.625 -3.1066,0 -5.625,-2.5184 -5.625,-5.625 0,-3.1066 2.5184,-5.625 5.625,-5.625 z"
       id="path3836"
       inkscape:connector-curvature="0" />
    <path
       inkscape:connector-curvature="0"
       style="opacity:1;fill:none;fill-opacity:1;fill-rule:nonzero;stroke:#ff0000;stroke-width:0.17999999999999999;stroke-linecap:square;stroke-linejoin:miter;stroke-miterlimit:4;stroke-opacity:1;stroke-dasharray:none"
       d="m 155.9375,535.04203 c -7.8276,0 -14.1875,-6.3599 -14.1875,-14.1875 l 0,-47.8125 c 0,-4.8922 3.95145,-8.875 8.84375,-8.875 l 832.6875,0 c 4.89229,0 8.875,3.95145 8.875,8.84375 l 0,47.84375 c 0,7.8276 -6.35983,14.1875 -14.1875,14.1875 l -822.03125,0 z m 0,-8.5625 c 3.1066,0 5.625,-2.5184 5.625,-5.625 0,-3.1067 -2.5184,-5.625 -5.625,-5.625 -3.1066,0 -5.625,2.5183 -5.625,5.625 0,3.1066 2.5184,5.625 5.625,5.625 z m 822.03125,0 c 3.1066,0 5.625,-2.5184 5.625,-5.625 0,-3.1067 -2.5184,-5.625 -5.625,-5.625 -3.10659,0 -5.625,2.5183 -5.625,5.625 0,3.1066 2.51841,5.625 5.625,5.625 z m -765.375,-7.0625 c 3.1066,0 5.625,-2.5184 5.625,-5.625 0,-3.1066 -2.5184,-5.625 -5.625,-5.625 -3.1066,0 -5.625,2.5184 -5.625,5.625 0,3.1066 2.5184,5.625 5.625,5.625 z m 70.875,0 c 3.1066,0 5.625,-2.5184 5.625,-5.625 0,-3.1066 -2.5184,-5.625 -5.625,-5.625 -3.1066,0 -5.625,2.5184 -5.625,5.625 0,3.1066 2.5184,5.625 5.625,5.625 z m 70.875,0 c 3.1066,0 5.625,-2.5184 5.625,-5.625 0,-3.1066 -2.5184,-5.625 -5.625,-5.625 -3.1066,0 -5.625,2.5184 -5.625,5.625 0,3.1066 2.5184,5.625 5.625,5.625 z m 70.84375,0 c 3.1066,0 5.625,-2.5184 5.625,-5.625 0,-3.1066 -2.5184,-5.625 -5.625,-5.625 -3.1066,0 -5.625,2.5184 -5.625,5.625 0,3.1066 2.5184,5.625 5.625,5.625 z m 70.875,0 c 3.1066,0 5.625,-2.5184 5.625,-5.625 0,-3.1066 -2.5184,-5.625 -5.625,-5.625 -3.1066,0 -5.625,2.5184 -5.625,5.625 0,3.1066 2.5184,5.625 5.625,5.625 z m 70.875,0 c 3.1066,0 5.625,-2.5184 5.625,-5.625 0,-3.1066 -2.5184,-5.625 -5.625,-5.625 -3.10659,0 -5.625,2.5184 -5.625,5.625 0,3.1066 2.51841,5.625 5.625,5.625 z m 70.84375,0 c 3.1066,0 5.625,-2.5184 5.625,-5.625 0,-3.1066 -2.5184,-5.625 -5.625,-5.625 -3.10659,0 -5.625,2.5184 -5.625,5.625 0,3.1066 2.51841,5.625 5.625,5.625 z m 70.875,0 c 3.1066,0 5.625,-2.5184 5.625,-5.625 0,-3.1066 -2.5184,-5.625 -5.625,-5.625 -3.10659,0 -5.625,2.5184 -5.625,5.625 0,3.1066 2.51841,5.625 5.625,5.625 z m 70.875,0 c 3.1066,0 5.625,-2.5184 5.625,-5.625 0,-3.1066 -2.5184,-5.625 -5.625,-5.625 -3.10659,0 -5.625,2.5184 -5.625,5.625 0,3.1066 2.51841,5.625 5.625,5.625 z m 70.875,-13.5625 c 3.1066,0 5.625,-2.5184 5.625,-5.625 0,-3.1067 -2.5184,-5.625 -5.625,-5.625 -3.10659,0 -5.625,2.5183 -5.625,5.625 0,3.1066 2.51841,5.625 5.625,5.625 z"
       id="rect3917-3" />
  </g>
</svg>
